<svg width="22" height="25" viewBox="0 0 22 25" fill="none" xmlns="http://www.w3.org/2000/svg">
<path d="M0 4.25C0 3.55964 0.559644 3 1.25 3H20.75C21.4404 3 22 3.55964 22 4.25C22 4.94036 21.4404 5.5 20.75 5.5H1.25C0.559644 5.5 0 4.94036 0 4.25ZM7.33333 13C7.33333 12.3096 7.89298 11.75 8.58333 11.75H20.75C21.4404 11.75 22 12.3096 22 13C22 13.6904 21.4404 14.25 20.75 14.25H8.58333C7.89298 14.25 7.33333 13.6904 7.33333 13ZM0 21.75C0 21.0596 0.559644 20.5 1.25 20.5H20.75C21.4404 20.5 22 21.0596 22 21.75C22 22.4404 21.4404 23 20.75 23H1.25C0.559644 23 0 22.4404 0 21.75Z" fill="black"/>
</svg>
