<svg width="30" height="30" viewBox="0 0 30 30" fill="none" xmlns="http://www.w3.org/2000/svg">
<path d="M14 12H24.1194C24.6774 12 24.9564 12 25.1206 12.16C25.2838 12.32 25.2624 12.573 25.2196 13.077L24.521 21.307C24.3725 23.059 24.2983 23.935 23.6626 24.467C23.0281 25 22.0584 25 20.1189 25H15.0519C13.1135 25 12.1437 25 11.5081 24.467C10.5654 23.675 10.7173 22.07 10.625 21" stroke="black" stroke-width="1.7" stroke-linecap="round" stroke-linejoin="round"/>
<path d="M14 11.91V17.364C14 19.078 14 19.934 13.3407 20.468C12.6815 21 11.6218 21 9.5 21C7.37825 21 6.3185 21 5.65925 20.468C5 19.935 5 19.078 5 17.364V16.454C5 13.884 5 12.598 5.98887 11.799C6.97662 11 8.5685 11 11.75 11H12.875C13.4049 11 13.6704 11 13.8358 11.133C14 11.266 14 11.482 14 11.91Z" stroke="black" stroke-width="1.7" stroke-linecap="round" stroke-linejoin="round"/>
<path d="M23 12C23 8.134 20.4688 5 17.3469 5C14.4984 5 12.1415 7.608 11.75 11M5 17H14M14 16H24.125" stroke="black" stroke-width="1.7" stroke-linecap="round" stroke-linejoin="round"/>
</svg>
