<svg width="50" height="50" viewBox="0 0 50 50" fill="none" xmlns="http://www.w3.org/2000/svg">
<path d="M10.1042 12.6979L21.0417 6.78125C22.2578 6.12482 23.6181 5.78113 25 5.78113C26.382 5.78113 27.7422 6.12482 28.9584 6.78125L39.8959 12.6979C41.2156 13.4103 42.3187 14.4657 43.0887 15.7527C43.8587 17.0397 44.2671 18.5106 44.2709 20.0104V35.8854C44.2709 38.0955 43.3929 40.2152 41.8301 41.778C40.2673 43.3408 38.1477 44.2187 35.9375 44.2187H14.0625C11.8524 44.2187 9.73277 43.3408 8.16996 41.778C6.60716 40.2152 5.72919 38.0955 5.72919 35.8854V20.0104C5.73292 18.5106 6.14132 17.0397 6.91133 15.7527C7.68134 14.4657 8.78441 13.4103 10.1042 12.6979Z" stroke="#679FF4" stroke-width="3.125"/>
<path d="M6.0625 17.6979L20.8333 26.2396C22.1002 26.971 23.5372 27.3561 25 27.3561C26.4628 27.3561 27.8998 26.971 29.1667 26.2396L44.0417 17.9063" stroke="#679FF4" stroke-width="3.125" stroke-linecap="round" stroke-linejoin="round"/>
</svg>
