<svg width="50" height="50" viewBox="0 0 50 50" fill="none" xmlns="http://www.w3.org/2000/svg">
<path d="M25 47C22.1109 47 19.2501 46.431 16.581 45.3253C13.9118 44.2197 11.4865 42.5992 9.44365 40.5563C7.40076 38.5135 5.78025 36.0882 4.67465 33.419C3.56905 30.7499 3 27.8891 3 25C3 22.1109 3.56905 19.2501 4.67465 16.581C5.78025 13.9118 7.40076 11.4865 9.44365 9.44365C11.4865 7.40076 13.9118 5.78025 16.581 4.67465C19.2501 3.56905 22.1109 3 25 3C30.8348 3 36.4305 5.31785 40.5563 9.44365C44.6821 13.5695 47 19.1652 47 25C47 30.8348 44.6821 36.4305 40.5563 40.5563C36.4305 44.6821 30.8348 47 25 47ZM25 47V21.8571C25 20.1901 25.6622 18.5913 26.841 17.4125C28.0198 16.2337 29.6186 15.5714 31.2857 15.5714H32.8571M17.1429 28.1429H32.8571" stroke="#679FF4" stroke-width="3.5"/>
</svg>
