<svg width="50" height="50" viewBox="0 0 50 50" fill="none" xmlns="http://www.w3.org/2000/svg">
<path fill-rule="evenodd" clip-rule="evenodd" d="M38.3605 14.2114L35.9376 6.3656L33.5146 14.2114L28.8271 16.4437L33.5355 18.6854L35.9376 25.55L38.3396 18.6854L43.048 16.4437L38.3605 14.2114ZM35.2355 15.6989L35.9376 13.426L36.6396 15.7L38.2021 16.4437L36.6605 17.1781L35.9376 19.2427L35.2146 17.1781L33.673 16.4437L35.2355 15.6989Z" fill="#679FF4"/>
<path d="M19.7917 16.6667L20.8334 12.5L21.8751 16.6667L25.0001 17.7083L21.8751 18.75L20.8334 22.9167L19.7917 18.75L16.6667 17.7083L19.7917 16.6667Z" fill="#679FF4"/>
<path fill-rule="evenodd" clip-rule="evenodd" d="M13.5417 41.4062V41.6625C13.5417 42.215 13.3222 42.7449 12.9315 43.1356C12.5408 43.5263 12.0109 43.7458 11.4583 43.7458H8.33333C7.7808 43.7458 7.2509 43.5263 6.86019 43.1356C6.46949 42.7449 6.25 42.215 6.25 41.6625V30.2094C6.25 29.6568 6.46949 29.1269 6.86019 28.7362C7.2509 28.3455 7.7808 28.126 8.33333 28.126H11.4583C11.9275 28.1258 12.383 28.284 12.7511 28.575C13.1192 28.8659 13.3783 29.2726 13.4865 29.7291C14.8656 29.2323 16.4771 28.6406 16.9698 28.4156C17.3885 28.225 17.8719 28.1604 18.274 28.1364C18.6889 28.1161 19.1048 28.1234 19.5188 28.1583C19.9822 28.196 20.4438 28.2544 20.9021 28.3333L20.926 28.3375L20.9333 28.3385H20.9365L20.9552 28.3427L27.924 29.9052L27.9667 29.9198L27.9781 29.9239L28.026 29.9385L28.2229 29.9948C28.3948 30.0427 28.6417 30.1062 28.9365 30.1708C29.5354 30.301 30.2906 30.4229 30.9938 30.4229C31.6438 30.4229 32.3167 30.6656 32.675 31.3239C32.9833 31.8885 32.9115 32.5094 32.7969 32.9385C32.6521 33.4739 32.3542 34.0364 31.976 34.5146C32.4865 34.3219 33.0458 34.0937 33.6458 33.8479L33.774 33.7958C35.4646 33.101 37.4688 32.2781 39.2375 31.9864C41.2583 31.6521 42.7281 32.3854 43.3948 33.6864C43.9885 34.8448 43.851 36.3646 42.9573 37.2802C42.7333 37.5104 42.3917 37.7521 42.049 37.9739C41.6823 38.2125 41.2313 38.4802 40.7302 38.7656C39.5791 39.41 38.4139 40.0289 37.2354 40.6219C34.7646 41.875 32.175 43.0937 31.3521 43.3948C30.3979 43.7437 29.3729 43.7771 28.3885 43.726C27.7941 43.6891 27.2005 43.6387 26.6083 43.575C26.1748 43.5301 25.7407 43.4902 25.3063 43.4552C23.2979 43.3031 21.7563 42.8125 20.3375 42.3614L20.1646 42.3062C18.6979 41.8416 17.3333 41.4281 15.526 41.3552C15.1135 41.3385 14.2885 41.3708 13.5417 41.4062ZM17.8333 30.3104C17.901 30.2791 18.0781 30.2344 18.3938 30.2156C18.6896 30.1979 19.0271 30.2094 19.3573 30.2344C19.7523 30.2667 20.1458 30.3164 20.5365 30.3833H20.5396L27.3802 31.9177L27.4271 31.9323C27.4847 31.9503 27.5646 31.9732 27.6667 32.001C27.8688 32.0573 28.1542 32.1312 28.4927 32.2052C29.1021 32.3385 29.9198 32.4781 30.751 32.5021C30.677 32.7025 30.5776 32.8926 30.4552 33.0677C30.2885 33.3094 30.1063 33.4958 29.9563 33.6031C29.5229 33.9135 29.1729 34.0427 28.9604 34.0979C28.8881 34.1179 28.8142 34.1318 28.7396 34.1396H28.7167L23.1313 34.0729L22.9333 36.1396L22.9885 36.15L23.1479 36.1781L23.7271 36.2802C24.2135 36.3656 24.8813 36.4802 25.6083 36.5989C27.0396 36.8323 28.7646 37.0906 29.7438 37.15C30.4208 37.1916 31.2083 36.9833 31.9406 36.7385C32.7042 36.4833 33.5677 36.1302 34.4365 35.7739C36.225 35.0406 38.0469 34.2937 39.5771 34.0406C40.9 33.8219 41.3719 34.3052 41.5406 34.6354C41.7833 35.1094 41.6521 35.6354 41.4656 35.825C41.4208 35.8719 41.2573 36.0041 40.9156 36.226C40.5969 36.4312 40.1854 36.6781 39.7021 36.9521C38.5794 37.5805 37.443 38.1841 36.2938 38.7625C33.8021 40.026 31.3229 41.1854 30.6354 41.4375C30.0792 41.6416 29.3906 41.6906 28.4958 41.6448C27.9687 41.6138 27.4425 41.569 26.9177 41.5104C26.4336 41.4594 25.9488 41.415 25.4635 41.3771C23.701 41.2437 22.3615 40.8177 20.925 40.3614L20.7948 40.3198C19.3073 39.8479 17.7156 39.3573 15.6104 39.2729C15.1365 39.2541 14.2927 39.2833 13.5417 39.3187V31.9219C15.0063 31.3979 17.174 30.6114 17.8333 30.3104ZM11.4583 30.2083H8.33333V41.6614H11.4583V30.2083Z" fill="#679FF4"/>
</svg>
