<svg width="25" height="26" viewBox="0 0 25 26" fill="none" xmlns="http://www.w3.org/2000/svg">
<path d="M12.4999 17.1666C13.605 17.1666 14.6648 16.7277 15.4462 15.9463C16.2276 15.1649 16.6666 14.105 16.6666 13C16.6666 11.8949 16.2276 10.8351 15.4462 10.0537C14.6648 9.2723 13.605 8.83331 12.4999 8.83331C11.3948 8.83331 10.335 9.2723 9.55364 10.0537C8.77224 10.8351 8.33325 11.8949 8.33325 13C8.33325 14.105 8.77224 15.1649 9.55364 15.9463C10.335 16.7277 11.3948 17.1666 12.4999 17.1666Z" stroke="#4968F7" stroke-width="1.25" stroke-linecap="round" stroke-linejoin="round"/>
<path d="M3.125 17.1667V8.83333C3.125 7.452 3.67373 6.12724 4.65049 5.15049C5.62724 4.17373 6.952 3.625 8.33333 3.625H16.6667C18.048 3.625 19.3728 4.17373 20.3495 5.15049C21.3263 6.12724 21.875 7.452 21.875 8.83333V17.1667C21.875 18.548 21.3263 19.8728 20.3495 20.8495C19.3728 21.8263 18.048 22.375 16.6667 22.375H8.33333C6.952 22.375 5.62724 21.8263 4.65049 20.8495C3.67373 19.8728 3.125 18.548 3.125 17.1667Z" stroke="#4968F7" stroke-width="1.25"/>
<path d="M18.2292 7.27894L18.2376 7.26978" stroke="#4968F7" stroke-width="1.25" stroke-linecap="round" stroke-linejoin="round"/>
</svg>
