<svg width="26" height="26" viewBox="0 0 26 26" fill="none" xmlns="http://www.w3.org/2000/svg">
<path d="M13.5833 22.1875C13.4133 22.3096 13.2093 22.3753 13 22.3753C12.7907 22.3753 12.5867 22.3096 12.4167 22.1875C7.38647 18.6021 2.04793 11.2271 7.44481 5.89792C8.92641 4.44047 10.9217 3.62409 13 3.625C15.0833 3.625 17.0823 4.44271 18.5552 5.89688C23.9521 11.226 18.6136 18.6 13.5833 22.1875Z" stroke="#4D6DEB" stroke-width="1.5625" stroke-linecap="round" stroke-linejoin="round"/>
<path d="M13 13C13.5526 13 14.0825 12.7805 14.4732 12.3898C14.8639 11.9991 15.0834 11.4692 15.0834 10.9167C15.0834 10.3641 14.8639 9.83423 14.4732 9.44353C14.0825 9.05283 13.5526 8.83334 13 8.83334C12.4475 8.83334 11.9176 9.05283 11.5269 9.44353C11.1362 9.83423 10.9167 10.3641 10.9167 10.9167C10.9167 11.4692 11.1362 11.9991 11.5269 12.3898C11.9176 12.7805 12.4475 13 13 13Z" stroke="#4D6DEB" stroke-width="1.5625" stroke-linecap="round" stroke-linejoin="round"/>
</svg>
