<svg width="50" height="50" viewBox="0 0 50 50" fill="none" xmlns="http://www.w3.org/2000/svg">
<path d="M7.81666 14.4271C7.80558 14.2221 7.75424 14.0214 7.66559 13.8363C7.57693 13.6513 7.45269 13.4855 7.29996 13.3484C7.14722 13.2113 6.96899 13.1057 6.77543 13.0375C6.58187 12.9693 6.37678 12.9399 6.17186 12.951C5.96695 12.9621 5.76622 13.0134 5.58114 13.1021C5.39606 13.1907 5.23026 13.315 5.0932 13.4677C4.95613 13.6204 4.85049 13.7987 4.78231 13.9922C4.71413 14.1858 4.68474 14.3909 4.69582 14.5958L7.81666 14.4271ZM9.82915 6.44164C9.55554 6.74402 9.41098 7.14138 9.42634 7.54888C9.4417 7.95638 9.61577 8.34174 9.91137 8.62265C10.207 8.90357 10.6007 9.05779 11.0084 9.05239C11.4162 9.04698 11.8057 8.88238 12.0937 8.59373L9.82915 6.44164ZM22.2167 41.275C22.3904 41.3869 22.5846 41.4633 22.7881 41.4997C22.9916 41.5361 23.2002 41.5317 23.402 41.4869C23.6038 41.4421 23.7947 41.3576 23.9636 41.2385C24.1325 41.1194 24.2761 40.9679 24.3861 40.7929C24.4961 40.6179 24.5702 40.4228 24.6042 40.2189C24.6383 40.015 24.6315 39.8064 24.5844 39.6052C24.5372 39.4039 24.4506 39.214 24.3296 39.0465C24.2085 38.879 24.0554 38.7371 23.8792 38.6291L22.2167 41.275ZM31.4854 41.7875C31.0796 41.7027 30.6567 41.7825 30.3097 42.0095C29.9628 42.2365 29.7202 42.5921 29.6354 42.9979C29.5506 43.4037 29.6305 43.8266 29.8575 44.1736C30.0845 44.5205 30.44 44.7631 30.8458 44.8479L31.4854 41.7875ZM32.5937 32.3833L33.5417 31.3833L31.275 29.2312L30.3271 30.2312L32.5937 32.3833ZM36.6646 30.9625L40.6437 33.2541L42.2042 30.5458L38.2229 28.2541L36.6646 30.9625ZM41.4125 38.0041L38.4521 41.1187L40.7187 43.2729L43.6771 40.1562L41.4125 38.0041ZM17.4146 33.2479C9.33957 24.7458 7.98541 17.5729 7.81666 14.4271L4.69582 14.5958C4.90416 18.45 6.53749 26.3333 15.15 35.4L17.4146 33.2479ZM20.2812 19.4208L20.8771 18.7916L18.6125 16.6396L18.0146 17.2687L20.2812 19.4208ZM21.3479 10.9583L18.7208 7.24373L16.1687 9.04789L18.7937 12.7625L21.3479 10.9583ZM19.1458 18.3437C18.7709 17.9824 18.3924 17.6247 18.0104 17.2708L18.0062 17.275L18 17.2812L17.8958 17.4021C17.6918 17.6725 17.5302 17.9725 17.4167 18.2916C17.2125 18.8646 17.1042 19.6229 17.2417 20.5687C17.5125 22.4271 18.7312 24.925 21.9125 28.2771L24.1792 26.1229C21.2042 22.9916 20.4708 21.0646 20.3333 20.1146C20.2667 19.6562 20.3333 19.4166 20.3604 19.3396L20.3771 19.3L20.3187 19.3771L20.2812 19.4208L19.1458 18.3437ZM21.9125 28.275C25.0854 31.6166 27.4812 32.9291 29.3083 33.2271C30.2479 33.3791 31.0083 33.2562 31.5833 33.0291C31.903 32.9049 32.2 32.729 32.4625 32.5083L32.5354 32.4375L32.5646 32.4083L32.5792 32.3958L32.5854 32.3896L32.5875 32.3854C32.5875 32.3854 32.5917 32.3833 31.4583 31.3062C30.325 30.2312 30.3271 30.2291 30.3271 30.2271L30.3312 30.225L30.3354 30.2187L30.3479 30.2083L30.4458 30.1208C30.4653 30.1097 30.4618 30.1104 30.4354 30.1229C30.3937 30.1396 30.2062 30.2062 29.8104 30.1416C28.9729 30.0041 27.1646 29.2666 24.1792 26.1229L21.9125 28.275ZM18.7208 7.24373C16.6083 4.25623 12.3833 3.74998 9.82915 6.44164L12.0937 8.59373C13.1833 7.44789 15.1021 7.53748 16.1687 9.04789L18.7208 7.24373ZM38.4521 41.1187C37.8708 41.7312 37.2646 42.0604 36.6729 42.1187L36.9792 45.2271C38.5354 45.075 39.7958 44.2458 40.7187 43.2729L38.4521 41.1187ZM20.8771 18.7916C22.8937 16.6687 23.0354 13.3479 21.3479 10.9583L18.7958 12.7625C19.675 14.0062 19.5396 15.6646 18.6125 16.6396L20.8771 18.7916ZM40.6437 33.2541C42.3542 34.2396 42.6896 36.6604 41.4125 38.0041L43.6771 40.1562C46.3958 37.2937 45.6042 32.5041 42.2042 30.5458L40.6437 33.2541ZM33.5417 31.3833C34.3437 30.5375 35.5958 30.3479 36.6646 30.9625L38.2229 28.2541C35.9333 26.9375 33.0979 27.3146 31.275 29.2312L33.5417 31.3833ZM23.8792 38.6291C21.8312 37.3416 19.65 35.6 17.4146 33.2479L15.15 35.4C17.5542 37.9312 19.9354 39.8416 22.2167 41.275L23.8792 38.6291ZM36.6708 42.1187C34.9355 42.2701 33.1873 42.1584 31.4854 41.7875L30.8458 44.8479C32.8594 45.283 34.9273 45.4108 36.9792 45.2271L36.6708 42.1187Z" fill="#679FF4"/>
</svg>
