<svg width="26" height="26" viewBox="0 0 26 26" fill="none" xmlns="http://www.w3.org/2000/svg">
<path d="M4.40836 7.71354C4.40282 7.61109 4.37715 7.51072 4.33282 7.41818C4.2885 7.32564 4.22638 7.24274 4.15001 7.17421C4.07364 7.10568 3.98453 7.05286 3.88775 7.01877C3.79097 6.98468 3.68842 6.96998 3.58596 6.97552C3.4835 6.98106 3.38314 7.00673 3.2906 7.05106C3.19806 7.09539 3.11516 7.15751 3.04663 7.23387C2.9781 7.31024 2.92528 7.39936 2.89119 7.49614C2.8571 7.59291 2.8424 7.69546 2.84794 7.79792L4.40836 7.71354ZM5.41461 3.72084C5.2778 3.87202 5.20552 4.0707 5.2132 4.27446C5.22088 4.47821 5.30792 4.67088 5.45572 4.81134C5.60352 4.9518 5.80037 5.02891 6.00425 5.02621C6.20813 5.02351 6.40287 4.9412 6.5469 4.79688L5.41461 3.72084ZM11.6084 21.1375C11.6952 21.1935 11.7923 21.2317 11.8941 21.2499C11.9958 21.2681 12.1002 21.2659 12.201 21.2435C12.3019 21.221 12.3974 21.1788 12.4818 21.1193C12.5663 21.0597 12.6381 20.984 12.6931 20.8965C12.7481 20.809 12.7851 20.7114 12.8022 20.6095C12.8192 20.5075 12.8158 20.4032 12.7922 20.3026C12.7686 20.202 12.7253 20.107 12.6648 20.0233C12.6043 19.9395 12.5277 19.8686 12.4396 19.8146L11.6084 21.1375ZM16.2427 21.3937C16.0398 21.3513 15.8284 21.3913 15.6549 21.5048C15.4814 21.6183 15.3601 21.796 15.3177 21.999C15.2753 22.2019 15.3153 22.4133 15.4288 22.5868C15.5423 22.7603 15.72 22.8816 15.9229 22.924L16.2427 21.3937ZM16.7969 16.6917L17.2709 16.1917L16.1375 15.1156L15.6636 15.6156L16.7969 16.6917ZM18.8323 15.9813L20.8219 17.1271L21.6021 15.7729L19.6115 14.6271L18.8323 15.9813ZM21.2063 19.5021L19.7261 21.0594L20.8594 22.1365L22.3386 20.5781L21.2063 19.5021ZM9.20732 17.124C5.16982 12.8729 4.49273 9.28646 4.40836 7.71354L2.84794 7.79792C2.95211 9.725 3.76877 13.6667 8.07502 18.2L9.20732 17.124ZM10.6406 10.2104L10.9386 9.89584L9.80627 8.81979L9.50732 9.13438L10.6406 10.2104ZM11.174 5.97917L9.86044 4.12188L8.5844 5.02396L9.8969 6.88125L11.174 5.97917ZM10.0729 9.67188C9.88547 9.4912 9.69623 9.31237 9.50523 9.13542L9.50315 9.1375L9.50002 9.14063L9.44794 9.20104C9.34594 9.33627 9.26515 9.48626 9.20836 9.64584C9.10627 9.93229 9.05211 10.3115 9.12086 10.7844C9.25627 11.7135 9.86565 12.9625 11.4563 14.6385L12.5896 13.5615C11.1021 11.9958 10.7354 11.0323 10.6667 10.5573C10.6334 10.3281 10.6667 10.2083 10.6802 10.1698L10.6886 10.15L10.6594 10.1885L10.6406 10.2104L10.0729 9.67188ZM11.4563 14.6375C13.0427 16.3083 14.2406 16.9646 15.1542 17.1135C15.624 17.1896 16.0042 17.1281 16.2917 17.0146C16.4515 16.9525 16.6 16.8645 16.7313 16.7542L16.7677 16.7188L16.7823 16.7042L16.7896 16.6979L16.7927 16.6948L16.7938 16.6927C16.7938 16.6927 16.7959 16.6917 16.2292 16.1531C15.6625 15.6156 15.6636 15.6146 15.6636 15.6135L15.6656 15.6125L15.6677 15.6094L15.674 15.6042L15.7229 15.5604C15.7327 15.5549 15.7309 15.5552 15.7177 15.5615C15.6969 15.5698 15.6031 15.6031 15.4052 15.5708C14.9865 15.5021 14.0823 15.1333 12.5896 13.5615L11.4563 14.6375ZM9.86044 4.12188C8.80419 2.62813 6.69169 2.375 5.41461 3.72084L6.5469 4.79688C7.09169 4.22396 8.05107 4.26875 8.5844 5.02396L9.86044 4.12188ZM19.7261 21.0594C19.4354 21.3656 19.1323 21.5302 18.8365 21.5594L18.9896 23.1135C19.7677 23.0375 20.3979 22.6229 20.8594 22.1365L19.7261 21.0594ZM10.9386 9.89584C11.9469 8.83438 12.0177 7.17396 11.174 5.97917L9.89794 6.88125C10.3375 7.50313 10.2698 8.33229 9.80627 8.81979L10.9386 9.89584ZM20.8219 17.1271C21.6771 17.6198 21.8448 18.8302 21.2063 19.5021L22.3386 20.5781C23.6979 19.1469 23.3021 16.7521 21.6021 15.7729L20.8219 17.1271ZM17.2709 16.1917C17.6719 15.7688 18.2979 15.674 18.8323 15.9813L19.6115 14.6271C18.4667 13.9688 17.049 14.1573 16.1375 15.1156L17.2709 16.1917ZM12.4396 19.8146C11.4156 19.1708 10.325 18.3 9.20732 17.124L8.07502 18.2C9.27711 19.4656 10.4677 20.4208 11.6084 21.1375L12.4396 19.8146ZM18.8354 21.5594C17.9678 21.6351 17.0937 21.5792 16.2427 21.3937L15.9229 22.924C16.9297 23.1415 17.9637 23.2054 18.9896 23.1135L18.8354 21.5594Z" fill="#4D6DEB"/>
</svg>
