<svg width="45" height="27" viewBox="0 0 45 27" fill="none" xmlns="http://www.w3.org/2000/svg">
<g clip-path="url(#clip0_13_687)">
<path d="M8.06787 27C8.06787 26.3756 8.01837 25.8525 8.09037 25.3473C8.12074 25.1325 8.37162 24.9018 8.57749 24.7725C9.57537 24.1391 10.6587 23.6328 11.5891 22.9061C14.5996 20.5526 16.3839 17.4543 16.4817 13.4291C16.5087 12.2872 16.088 12.0003 15.1295 12.447C12.3586 13.7317 9.37849 12.978 7.78887 10.5907C6.05524 7.98522 6.29937 4.51572 8.37724 2.24097C11.03 -0.663782 15.3972 -0.751532 18.4089 2.02497C20.2122 3.68772 21.0695 5.83422 21.2832 8.27659C21.9999 16.4565 17.897 23.1997 10.4281 26.1618C9.68899 26.4543 8.93187 26.6951 8.06787 27Z" fill="white"/>
</g>
<g clip-path="url(#clip1_13_687)">
<path d="M25.0679 27C25.0679 26.3756 25.0184 25.8525 25.0904 25.3473C25.1207 25.1325 25.3716 24.9018 25.5775 24.7725C26.5754 24.1391 27.6587 23.6328 28.5891 22.9061C31.5996 20.5526 33.3839 17.4543 33.4817 13.4291C33.5087 12.2872 33.088 12.0003 32.1295 12.447C29.3586 13.7317 26.3785 12.978 24.7889 10.5907C23.0552 7.98522 23.2994 4.51572 25.3772 2.24097C28.03 -0.663782 32.3972 -0.751532 35.4089 2.02497C37.2122 3.68772 38.0695 5.83422 38.2832 8.27659C38.9999 16.4565 34.897 23.1997 27.4281 26.1618C26.689 26.4543 25.9319 26.6951 25.0679 27Z" fill="white"/>
</g>
<defs>
<clipPath id="clip0_13_687">
<rect width="27" height="27" fill="white" transform="translate(0.5)"/>
</clipPath>
<clipPath id="clip1_13_687">
<rect width="27" height="27" fill="white" transform="translate(17.5)"/>
</clipPath>
</defs>
</svg>
