<svg width="70" height="71" viewBox="0 0 70 71" fill="none" xmlns="http://www.w3.org/2000/svg">
<rect y="0.5" width="70" height="70" rx="35" fill="white"/>
<path d="M16.282 51.0718C18.4007 54.0981 27.6107 56.4756 31.9607 50.8093C36.667 53.0593 44.4295 52.3618 50.7482 48.8368C51.6257 48.3475 52.4582 47.7287 52.9663 46.8606C54.1157 44.9012 54.1438 42.1825 52.0476 38.1718C48.5507 29.4437 42.2638 21.7843 39.7251 18.7037C39.2038 18.2275 35.8776 17.5525 33.8507 16.9037C32.9545 16.6281 31.2876 16.4425 29.2926 19.0712C28.3457 20.3181 24.0501 23.3781 29.5007 25.4368C30.3445 25.6525 30.967 26.0481 34.8182 25.3431C35.3207 25.2568 36.5732 25.3431 37.4563 26.8937L39.2995 29.53C39.4727 29.7742 39.5822 30.0577 39.6182 30.355C39.9407 33.1675 39.9295 36.685 41.497 38.4662C39.0763 36.7168 32.752 34.6375 27.9857 40.5531M16.252 37.2625C18.3974 35.3498 21.1327 34.2288 24.0034 34.0859C26.874 33.943 29.7072 34.7867 32.032 36.4768" stroke="#4D6DEB" stroke-width="2" stroke-linecap="round" stroke-linejoin="round"/>
</svg>
