<svg width="50" height="50" viewBox="0 0 50 50" fill="none" xmlns="http://www.w3.org/2000/svg">
<path d="M27.0835 23.4375V10.4167C27.0835 7.29169 29.1668 4.16669 33.3335 4.16669C37.5002 4.16669 39.5835 7.29169 39.5835 10.4167V35.4167" stroke="#679FF4" stroke-width="2"/>
<path d="M34.1147 35.4167H45.0522L45.8335 41.6667H33.3335L34.1147 35.4167Z" stroke="#679FF4" stroke-width="2" stroke-linecap="round" stroke-linejoin="round"/>
<path d="M10.4167 41.6667H26.9647C27.0303 41.6667 27.0834 41.6146 27.0834 41.5479V24.224C27.0834 16.599 20.9022 10.4167 13.2761 10.4167C11.689 10.4167 10.1668 11.0472 9.04453 12.1695C7.92224 13.2918 7.29175 14.8139 7.29175 16.4011V30.2084" stroke="#679FF4" stroke-width="2" stroke-linecap="round" stroke-linejoin="round"/>
<path d="M10.4167 41.6667C13.8685 41.6667 16.6667 38.8685 16.6667 35.4167C16.6667 31.9649 13.8685 29.1667 10.4167 29.1667C6.96497 29.1667 4.16675 31.9649 4.16675 35.4167C4.16675 38.8685 6.96497 41.6667 10.4167 41.6667Z" stroke="#679FF4" stroke-width="3"/>
<path d="M14.5835 10.4167V30.2084" stroke="#679FF4" stroke-width="2" stroke-linecap="round" stroke-linejoin="round"/>
</svg>
