<svg width="70" height="71" viewBox="0 0 70 71" fill="none" xmlns="http://www.w3.org/2000/svg">
<rect y="0.5" width="70" height="70" rx="35" fill="white"/>
<path d="M21.8351 24.5436L21.5 24.6607V25.0156V38.6429C21.5 46.0383 27.5489 52.0268 35 52.0268C42.4511 52.0268 48.5 46.0383 48.5 38.6429V25.0156V24.6607L48.1649 24.5436L35.1649 20.0012L35 19.9436L34.8351 20.0012L21.8351 24.5436ZM19.5 23.1471L35 18.0266L50.5 23.1471V38.6429C50.5 47.1211 43.5656 54 35 54C26.4344 54 19.5 47.1211 19.5 38.6429V23.1471Z" stroke="#4D6DEB"/>
<path d="M27.918 35.3773L27.9196 35.3789L32.3638 39.6432L33.056 40.3073L33.7484 39.6433L42.1057 31.6284L42.1066 31.6276C42.146 31.5896 42.1951 31.5575 42.252 31.5348C42.309 31.5121 42.3714 31.5 42.4354 31.5C42.4993 31.5 42.5618 31.5121 42.6187 31.5348C42.6757 31.5575 42.7247 31.5896 42.7642 31.6276L42.7649 31.6282L42.8838 31.7424L42.8845 31.743C42.924 31.7808 42.953 31.8234 42.9719 31.8673C42.9909 31.9111 43 31.9565 43 32.0013C43 32.046 42.9909 32.0914 42.9719 32.1352C42.953 32.1791 42.924 32.2217 42.8845 32.2595L42.8838 32.2602L33.3878 41.3718L33.3871 41.3724C33.3477 41.4104 33.2986 41.4425 33.2417 41.4652C33.1847 41.4879 33.1223 41.5 33.0583 41.5C32.9944 41.5 32.9319 41.4879 32.875 41.4652C32.818 41.4425 32.769 41.4104 32.7295 41.3724L32.7288 41.3718L32.6396 41.2862L27.1417 36.0108L27.14 36.0092C27.0928 35.9641 27.0576 35.9127 27.0344 35.8592C27.0113 35.8058 27 35.7501 27 35.6948C27 35.6396 27.0113 35.5839 27.0344 35.5305C27.0576 35.4769 27.0928 35.4256 27.14 35.3804L27.1401 35.3804L27.1433 35.3773C27.1904 35.3319 27.2486 35.2938 27.3155 35.2671C27.3826 35.2404 27.4558 35.2261 27.5307 35.2261C27.6055 35.2261 27.6787 35.2404 27.7458 35.2671C27.8127 35.2938 27.8709 35.3319 27.918 35.3773Z" stroke="#4D6DEB" stroke-width="2"/>
</svg>
